<svg width="123" height="42" viewBox="0 0 123 42" fill="none" xmlns="http://www.w3.org/2000/svg">
<g clip-path="url(#clip0_55803_2890)">
<path d="M33.4913 31.6925L41.6291 4.95911e-05H40.2656L34.1647 23.9041H33.1212L39.2254 4.95911e-05H33.628L25.4868 31.6925H33.4913Z" fill="#306AF1"/>
<path d="M25.3568 36.1429L25.6235 35.0793H41.5391L41.9158 33.8197H10.1281L16.599 8.18025H26.4436L28.5373 -1.71661e-05H10.6015L-1.52588e-05 42H39.8222L41.3224 36.1429H25.3568Z" fill="#306AF1"/>
<path d="M81.3589 38.216H83.6083C83.6204 38.3089 83.6446 38.4018 83.6487 38.4946C83.685 39.2821 84.1656 39.6981 84.8966 39.8354C85.1752 39.8879 85.4619 39.9121 85.7446 39.9283C86.7219 39.9889 87.6952 39.9929 88.6644 39.8314C88.9391 39.787 89.2096 39.6739 89.4681 39.5568C89.775 39.4154 90.0092 39.1771 90.1183 38.85C90.2233 38.5431 90.3404 38.2241 90.3646 37.905C90.4091 37.2427 90.3969 36.5723 90.4091 35.906C90.4091 35.8898 90.3889 35.8696 90.3606 35.8293C90.2556 35.8939 90.1466 35.9585 90.0416 36.0271C89.1814 36.5723 88.2162 36.75 87.2227 36.8066C86.2333 36.8671 85.2479 36.7823 84.2868 36.5239C82.6552 36.0837 81.6012 35.0014 81.2296 33.2325C81.0479 32.3602 80.9792 31.4798 81.0277 30.5914C81.0802 29.6383 81.2054 28.7014 81.6375 27.825C82.0333 27.0173 82.6431 26.4398 83.4468 26.036C84.2423 25.6362 85.0944 25.5271 85.9627 25.4666C87.0289 25.3939 88.095 25.4221 89.1369 25.6685C90.5504 25.9996 91.6206 26.767 92.1779 28.1643C92.4889 28.9437 92.6019 29.7514 92.61 30.5712C92.6302 32.8004 92.6302 35.0337 92.61 37.2629C92.6019 38.0827 92.5131 38.8945 92.1819 39.6698C91.7781 40.6188 91.0875 41.2327 90.1102 41.5436C89.2581 41.8183 88.3817 41.9475 87.4892 41.9354C86.6694 41.9233 85.8456 41.9233 85.0258 41.8586C84.3352 41.8021 83.6648 41.6204 83.0469 41.2973C82.3321 40.9217 81.8516 40.3523 81.6254 39.577C81.5366 39.2741 81.4639 38.9631 81.3992 38.6562C81.371 38.5229 81.3791 38.3775 81.3669 38.22L81.3589 38.216ZM83.2731 31.1043C83.3175 31.6535 83.3296 32.1785 83.4064 32.6954C83.4871 33.2446 83.7012 33.7454 84.1131 34.1412C84.4523 34.4643 84.8723 34.6137 85.3166 34.7106C86.0839 34.8843 86.8592 34.8641 87.6387 34.8075C88.0829 34.7752 88.5029 34.6743 88.9067 34.4885C89.5044 34.2139 89.9083 33.7616 90.1142 33.1356C90.3081 32.5621 90.405 31.9725 90.4091 31.3668C90.4131 30.5106 90.3929 29.6625 90.0496 28.8548C89.8275 28.3379 89.4681 27.9623 88.9431 27.7483C88.7614 27.6756 88.5716 27.6191 88.3818 27.5625C87.7194 27.3727 87.0369 27.4131 86.3585 27.4131C85.8819 27.4131 85.4216 27.502 84.9692 27.6393C84.5048 27.7806 84.1091 28.031 83.8385 28.4389C83.6164 28.7781 83.4468 29.1537 83.4023 29.5616C83.3458 30.0825 83.3135 30.6035 83.2731 31.1043Z" fill="#1A202C"/>
<path d="M69.7079 5.61758H67.3171C67.309 5.56104 67.2767 5.48431 67.2767 5.38739C67.2687 4.95527 67.1596 4.54739 67.0223 4.1395C66.7881 3.45699 66.3277 2.99257 65.6896 2.67757C65.0031 2.33834 64.264 2.25353 63.5169 2.21718C62.5073 2.16872 61.4977 2.15661 60.5002 2.33026C59.1635 2.56449 58.1862 3.25103 57.6935 4.56354C57.4189 5.30258 57.326 6.06585 57.2654 6.84123C57.1644 8.14162 57.1927 9.442 57.33 10.7383C57.4148 11.5743 57.6289 12.3739 58.0852 13.0887C58.5375 13.7955 59.1998 14.2114 60.0115 14.4174C61.4048 14.7687 62.8102 14.7809 64.2237 14.5951C64.6558 14.5385 65.0919 14.4376 65.4958 14.2841C66.5539 13.8884 67.0829 13.0605 67.2606 11.9822C67.305 11.7157 67.3171 11.4451 67.3454 11.1543H69.7321C69.7402 11.2432 69.7644 11.328 69.7564 11.4087C69.6715 12.382 69.51 13.3351 69.0375 14.2114C68.565 15.0797 67.8704 15.7057 66.9739 16.1095C65.7825 16.6466 64.5225 16.8364 63.2302 16.8485C62.5396 16.8566 61.849 16.8687 61.1585 16.8324C60.0237 16.7718 58.9171 16.5618 57.8833 16.061C56.9867 15.6289 56.2921 14.9747 55.8156 14.1105C55.2623 13.1089 54.9877 12.0226 54.8827 10.8918C54.7535 9.4622 54.7615 8.03258 54.8262 6.59893C54.8827 5.36316 55.125 4.17181 55.6621 3.04911C56.2194 1.89007 57.116 1.10661 58.3033 0.617951C59.1998 0.25045 60.1408 0.121219 61.0939 0.0566036C62.6204 -0.044358 64.1469 -0.036281 65.6452 0.298911C67.2283 0.654298 68.674 2.13237 68.674 2.13237C68.674 2.13237 69.0335 3.34795 69.7079 5.6095V5.61758Z" fill="#1A202C"/>
<path d="M122.135 11.752H112.847C112.835 12.5718 112.964 13.3189 113.424 13.965C113.816 14.5143 114.398 14.7646 115.052 14.8535C116.134 15.0029 117.216 14.9908 118.299 14.8575C119.147 14.7525 119.74 14.3043 119.862 13.3956C119.87 13.3229 119.894 13.2502 119.914 13.1654H122.038C122.079 13.541 122.014 13.8964 121.917 14.2356C121.578 15.4189 120.782 16.1458 119.619 16.5052C118.428 16.8768 117.2 16.8646 115.968 16.8566C115.181 16.8525 114.418 16.7314 113.675 16.485C112.532 16.1014 111.663 15.3987 111.163 14.276C110.916 13.7227 110.771 13.1452 110.698 12.5435C110.549 11.332 110.541 10.1204 110.759 8.91695C110.985 7.66907 111.518 6.5908 112.629 5.88003C113.384 5.39945 114.224 5.17734 115.108 5.08849C116.296 4.97138 117.475 4.97542 118.642 5.22176C120.055 5.52465 121.061 6.33234 121.622 7.68118C122.018 8.63022 122.087 9.63176 122.127 10.6373C122.139 10.9846 122.127 11.336 122.127 11.7439L122.135 11.752ZM119.95 9.93061C119.93 9.72061 119.918 9.55907 119.898 9.39753C119.837 8.92503 119.696 8.47676 119.462 8.06484C119.106 7.43484 118.517 7.12792 117.838 7.00272C116.885 6.82503 115.916 6.82503 114.963 7.0108C114.422 7.1158 113.909 7.32984 113.545 7.77811C113.045 8.40003 112.879 9.13099 112.839 9.93061H119.95Z" fill="#1A202C"/>
<path d="M98.1831 0.177763H100.376C100.388 1.17123 100.376 2.15257 100.38 3.12988C100.38 4.09911 100.38 5.06431 100.38 6.082C100.461 6.04162 100.497 6.02546 100.529 6.00527C101.26 5.46008 102.1 5.19758 102.997 5.10065C104.075 4.9795 105.149 5.00777 106.203 5.25008C107.706 5.59335 108.756 6.40912 109.135 8.08104C109.281 8.72315 109.349 9.36931 109.345 10.0316C109.333 12.1316 109.341 14.2276 109.341 16.3276C109.341 16.4447 109.341 16.5618 109.341 16.6991H107.112C107.108 16.5739 107.1 16.4487 107.1 16.3195C107.1 14.373 107.104 12.4264 107.088 10.4839C107.088 9.97104 107.056 9.45411 106.967 8.95335C106.817 8.077 106.3 7.4995 105.416 7.28142C104.641 7.09161 103.853 7.08758 103.062 7.16835C102.779 7.19662 102.496 7.24104 102.222 7.30565C101.426 7.4995 100.889 7.98008 100.618 8.75546C100.453 9.23604 100.376 9.72469 100.376 10.2335C100.38 12.2124 100.376 14.1912 100.376 16.1701C100.376 16.3316 100.376 16.4972 100.376 16.6951C99.6369 16.7395 98.9221 16.7072 98.2114 16.7153C98.1346 16.4326 98.1064 0.726995 98.179 0.177763H98.1831Z" fill="#1A202C"/>
<path d="M82.9581 16.7071H80.8662V15.4027C80.7571 15.4996 80.7046 15.5441 80.6521 15.5925C80.2039 16.0287 79.6708 16.3195 79.0812 16.5173C77.7687 16.9656 76.4239 16.9373 75.0791 16.7475C74.5096 16.6668 73.9564 16.4729 73.4354 16.1943C72.454 15.6612 71.8644 14.8333 71.5212 13.7954C71.1456 12.6646 71.1254 11.4975 71.1537 10.3264C71.1698 9.66811 71.2667 9.026 71.4404 8.38792C71.925 6.5908 73.1244 5.56907 74.9216 5.2258C76.4441 4.931 77.9827 4.95119 79.4931 5.29042C80.6077 5.5408 81.5527 6.09811 82.1625 7.10369C82.5058 7.66907 82.736 8.28696 82.8127 8.94523C82.8854 9.551 82.9339 9.99523 82.9419 10.6414C82.9581 11.8933 82.9662 12.5193 82.95 14.0175C82.9419 14.6395 82.9379 15.5643 82.95 16.7071H82.9581ZM77.0741 7.05523C76.6177 7.09965 76.1573 7.12388 75.701 7.1885C74.4369 7.37427 73.7746 8.01234 73.5606 9.27638C73.3587 10.4597 73.3627 11.647 73.6091 12.8262C73.7989 13.7429 74.3158 14.3608 75.2406 14.6031C76.331 14.8898 77.4335 14.8696 78.5319 14.6475C79.2225 14.5062 79.8202 14.171 80.1675 13.541C80.3654 13.1856 80.5108 12.7818 80.5956 12.382C80.7733 11.5783 80.7369 10.7545 80.7046 9.93465C80.6844 9.44196 80.5915 8.96138 80.3896 8.501C80.1231 7.88715 79.6587 7.50753 79.0287 7.31369C78.3906 7.11984 77.7323 7.09965 77.0741 7.05119V7.05523Z" fill="#1A202C"/>
<path d="M79.7435 31.589C79.687 32.1018 79.6506 32.8288 79.5173 33.5315C79.3437 34.4442 78.9721 35.2801 78.2816 35.9465C77.6718 36.5361 76.9368 36.8753 76.121 37.0651C75.5879 37.1903 75.0468 37.2832 74.4975 37.2872C73.71 37.2913 72.9185 37.3317 72.135 37.2024C71.1941 37.049 70.2975 36.7784 69.5464 36.1605C68.981 35.6961 68.5933 35.1105 68.3429 34.432C68.0966 33.7617 67.9593 33.0711 67.9148 32.3563C67.8583 31.3911 67.8583 30.4299 68.0158 29.4809C68.1369 28.7459 68.3914 28.0432 68.8154 27.4172C69.2071 26.8438 69.72 26.4117 70.346 26.1088C70.8912 25.8463 71.4646 25.6726 72.0704 25.5918C73.387 25.4142 74.6994 25.4101 75.9958 25.6767C77.3204 25.9472 78.4068 26.6015 79.0448 27.8453C79.4043 28.544 79.5981 29.2911 79.6587 30.0745C79.691 30.5107 79.7112 30.9468 79.7475 31.589H79.7435ZM77.4294 31.3992C77.4294 31.1245 77.4294 30.854 77.4294 30.5793C77.4254 30.0382 77.3002 29.5172 77.1064 29.0165C76.8479 28.3582 76.3633 27.9301 75.6848 27.7645C74.4531 27.4576 73.2093 27.4617 71.9775 27.7565C71.1537 27.9543 70.6125 28.4915 70.3985 29.3072C70.035 30.6843 70.027 32.0695 70.3985 33.4507C70.6085 34.2382 71.1133 34.7511 71.9008 34.9974C72.8094 35.2801 73.7383 35.2801 74.6671 35.1993C75.0548 35.167 75.4466 35.0822 75.8181 34.9611C76.5127 34.739 76.9448 34.2503 77.1831 33.5638C77.4294 32.857 77.4416 32.1301 77.4335 31.3992H77.4294Z" fill="#1A202C"/>
<path d="M96.0427 9.24819H93.8175C93.7731 9.018 93.7327 8.80396 93.6883 8.59396C93.555 7.93569 93.1229 7.51569 92.5091 7.34607C91.241 6.99473 89.9527 6.97858 88.6766 7.32588C88.0506 7.4955 87.6023 7.89531 87.3196 8.48088C87.1339 8.86857 87.0087 9.27646 86.9764 9.70454C86.9077 10.6415 86.8835 11.5824 87.0289 12.5193C87.0935 12.9353 87.2469 13.323 87.4691 13.6784C87.7275 14.0943 88.095 14.3851 88.5635 14.5224C88.9391 14.6355 89.3267 14.7284 89.7185 14.7647C90.506 14.8374 91.2975 14.8455 92.0769 14.6799C92.2142 14.6517 92.3516 14.5992 92.4848 14.5588C93.2117 14.3205 93.6317 13.8238 93.7408 13.0686C93.765 12.8949 93.7892 12.7253 93.8175 12.5395H96.0185C96.0669 12.7617 96.0185 12.9757 95.9821 13.1857C95.8812 13.8117 95.7358 14.4255 95.3966 14.9788C94.92 15.7542 94.2254 16.2388 93.3733 16.5053C92.5414 16.7678 91.6852 16.889 90.8129 16.8607C90.1546 16.8365 89.4923 16.8486 88.8462 16.7638C88.0708 16.6628 87.3277 16.4165 86.6694 15.9763C85.6558 15.2978 85.1227 14.3124 84.8642 13.1453C84.6542 12.1963 84.6139 11.2392 84.6623 10.274C84.7067 9.34107 84.8521 8.42838 85.2519 7.56819C85.6719 6.66357 86.3302 6.0255 87.2308 5.60146C88.0748 5.20569 88.9754 5.10069 89.8841 5.04415C90.8614 4.98357 91.8346 5.028 92.7958 5.22588C93.4379 5.35915 94.0356 5.59742 94.5646 5.98107C95.1502 6.40511 95.546 6.9705 95.7641 7.66108C95.9216 8.16184 96.0346 8.67069 96.0427 9.24819Z" fill="#1A202C"/>
<path d="M57.3543 34.9812H66.2793C66.36 35.2074 66.3721 36.8349 66.2994 37.1176H55.0362C54.9675 36.8793 54.9433 21.1172 55.0079 20.6407C55.2906 20.572 56.9706 20.5599 57.3543 20.6326V34.9812Z" fill="#1A202C"/>
<path d="M96.9837 37.1336H94.7827V25.616C95.5096 25.5958 96.2325 25.6079 96.9837 25.6079V37.1377V37.1336Z" fill="#1A202C"/>
<path d="M96.9917 20.6285V23.1041H94.7867V20.6285H96.9917Z" fill="#1A202C"/>
<path d="M108.34 33.0306C108.328 33.1275 108.324 33.2245 108.308 33.3214C108.194 34.1331 107.811 34.7429 106.987 34.9852C106.644 35.0862 106.284 35.175 105.929 35.1993C105.008 35.2679 104.091 35.276 103.195 34.9893C102.403 34.7389 101.898 34.226 101.688 33.4425C101.571 33.0023 101.487 32.546 101.454 32.0896C101.386 31.1164 101.402 30.1431 101.713 29.2021C101.955 28.4631 102.444 27.9583 103.199 27.7523C104.463 27.4091 105.739 27.4293 106.999 27.7604C107.455 27.8816 107.815 28.1562 108.029 28.5721L109.604 26.9002C109.277 26.5287 108.865 26.2137 108.344 25.9754C107.742 25.7008 107.112 25.5998 106.47 25.5191C105.521 25.3979 104.564 25.4343 103.615 25.5352C102.981 25.5998 102.367 25.7452 101.777 26.0118C100.731 26.4843 100.033 27.2637 99.6168 28.3218C99.3381 29.0325 99.2331 29.7716 99.1927 30.5308C99.1362 31.5485 99.1564 32.5662 99.3664 33.5637C99.532 34.327 99.8227 35.0458 100.336 35.6556C101.127 36.6046 102.205 37.0125 103.377 37.1902C104.035 37.2912 104.709 37.267 105.376 37.2871C106.24 37.3154 107.084 37.1862 107.904 36.9277C108.683 36.6773 109.349 36.2533 109.814 35.5546C110.198 34.9771 110.408 34.3431 110.488 33.6606C110.513 33.4385 110.529 33.2123 110.549 32.966H108.372C108.352 33.0064 108.344 33.0145 108.34 33.0225V33.0306Z" fill="#1A202C"/>
</g>
<defs>
<clipPath id="clip0_55803_2890">
<rect width="122.365" height="42" fill="white"/>
</clipPath>
</defs>
</svg>
